<?xml version="1.0" encoding="UTF-8" standalone="no"?>
<!-- Created with Inkscape (http://www.inkscape.org/) -->

<svg
   width="297mm"
   height="210mm"
   viewBox="0 0 1122.5197 793.70081"
   version="1.1"
   id="svg1"
   xml:space="preserve"
   inkscape:version="1.3.2 (091e20ef0f, 2023-11-25)"
   sodipodi:docname="linux-distro-personas.svg"
   xmlns:inkscape="http://www.inkscape.org/namespaces/inkscape"
   xmlns:sodipodi="http://sodipodi.sourceforge.net/DTD/sodipodi-0.dtd"
   xmlns="http://www.w3.org/2000/svg"
   xmlns:svg="http://www.w3.org/2000/svg"><sodipodi:namedview
     id="namedview1"
     pagecolor="#ffffff"
     bordercolor="#000000"
     borderopacity="0.25"
     inkscape:showpageshadow="2"
     inkscape:pageopacity="0.0"
     inkscape:pagecheckerboard="0"
     inkscape:deskcolor="#d1d1d1"
     inkscape:document-units="mm"
     inkscape:zoom="1.2223126"
     inkscape:cx="666.3598"
     inkscape:cy="268.34378"
     inkscape:window-width="2876"
     inkscape:window-height="1576"
     inkscape:window-x="1920"
     inkscape:window-y="20"
     inkscape:window-maximized="1"
     inkscape:current-layer="layer1" /><defs
     id="defs1" /><g
     inkscape:label="Layer 1"
     inkscape:groupmode="layer"
     id="layer1"><path
       d="m 788.54235,556.8822 a 18.96476,18.96476 0 1 0 37.92952,0 18.96476,18.96476 0 1 0 -37.92952,0 z m 14.00132,29.66206 2.75582,4.59303 -4.9338,18.35729 -5.33383,-21.76502 c -0.29633,-1.20012 -1.45199,-1.98537 -2.65211,-1.67424 -10.37135,2.59284 -18.06096,11.98632 -18.06096,23.17256 0,2.51876 2.04463,4.54858 4.54858,4.54858 h 19.52777 c 0,0 0,0 0.0148,0 h 0.80007 16.59417 0.81489 c 0,0 0,0 0.0148,0 h 19.51295 c 2.51876,0 4.54858,-2.04463 4.54858,-4.54858 0,-11.18624 -7.68961,-20.57972 -18.06096,-23.17256 -1.20012,-0.29632 -2.35578,0.48894 -2.65211,1.67424 l -5.33383,21.76502 -4.9338,-18.35729 2.75582,-4.59303 c 0.94823,-1.58534 -0.19262,-3.58553 -2.02983,-3.58553 h -2.93361 -2.9188 c -1.8372,0 -2.97806,2.01501 -2.02981,3.58553 z"
       id="path1"
       style="stroke-width:0.148162" /><path
       d="m 123.51956,542.22339 c 0,-5.91724 4.8109,-10.72815 10.72815,-10.72815 h 64.36888 c 5.91725,0 10.72815,4.81091 10.72815,10.72815 v 42.9126 h -10.72815 v -42.9126 h -64.36888 v 42.9126 h -10.72815 z m -10.72816,51.49512 c 0,-1.77685 1.4416,-3.21844 3.21845,-3.21844 h 100.84459 c 1.77686,0 3.21846,1.44159 3.21846,3.21844 0,7.1074 -5.76638,12.87378 -12.87379,12.87378 h -81.53392 c -7.10741,0 -12.87379,-5.76638 -12.87379,-12.87378 z m 47.10328,-32.55323 -5.19645,5.19645 5.19645,5.19645 c 1.5757,1.5757 1.5757,4.12363 0,5.68256 -1.57569,1.55893 -4.12363,1.5757 -5.68256,0 l -8.04612,-8.04611 c -1.57569,-1.57569 -1.57569,-4.12364 0,-5.68257 l 8.04612,-8.0461 c 1.5757,-1.5757 4.12363,-1.5757 5.68256,0 1.55894,1.57569 1.5757,4.12362 0,5.68256 z m 18.77427,-5.69932 8.0461,8.0461 c 1.5757,1.5757 1.5757,4.12363 0,5.68257 l -8.0461,8.04611 c -1.5757,1.5757 -4.12364,1.5757 -5.68258,0 -1.55893,-1.5757 -1.57569,-4.12363 0,-5.68256 l 5.19645,-5.19645 -5.19645,-5.19645 c -1.57569,-1.5757 -1.57569,-4.12363 0,-5.68257 1.5757,-1.55893 4.12364,-1.57569 5.68258,0 z"
       id="path1-6"
       style="stroke-width:0.167627" /><path
       d="m 718.80567,90.570935 c -5.52551,0 -10.01792,4.49241 -10.01792,10.017915 v 40.07167 h 10.01792 v -40.07167 h 60.10751 v 40.07167 h 10.01792 v -40.07167 c 0,-5.525505 -4.49241,-10.017915 -10.01792,-10.017915 z m -17.03046,55.098545 c -1.65922,0 -3.00538,1.34616 -3.00538,3.00538 0,6.63687 5.38463,12.0215 12.02151,12.0215 h 76.13617 c 6.63688,0 12.02151,-5.38463 12.02151,-12.0215 0,-1.65922 -1.34616,-3.00538 -3.00538,-3.00538 z"
       id="path1-2"
       style="stroke-width:0.15653" /><path
       d="m 130.39008,76.820715 c -6.56417,0 -11.90105,5.336879 -11.90105,11.901046 V 100.6228 c 0,6.56416 5.33688,11.90103 11.90105,11.90103 h 71.40626 c 6.56417,0 11.90104,-5.33687 11.90104,-11.90103 V 88.721761 c 0,-6.564167 -5.33687,-11.901046 -11.90104,-11.901046 z m 52.06707,13.388674 a 4.4628913,4.4628913 0 1 1 0,8.925782 4.4628913,4.4628913 0 1 1 0,-8.925782 z m 8.92578,4.462891 a 4.4628913,4.4628913 0 1 1 8.92578,0 4.4628913,4.4628913 0 1 1 -8.92578,0 z m -60.99285,29.7526 c -6.56417,0 -11.90105,5.33687 -11.90105,11.90104 v 11.90104 c 0,6.56417 5.33688,11.90105 11.90105,11.90105 h 71.40626 c 6.56417,0 11.90104,-5.33688 11.90104,-11.90105 v -11.90104 c 0,-6.56417 -5.33687,-11.90104 -11.90104,-11.90104 z m 52.06707,13.38867 a 4.462895,4.462895 0 1 1 0,8.92579 4.462895,4.462895 0 1 1 0,-8.92579 z m 10.41341,4.46289 a 4.4628913,4.4628913 0 1 1 8.92578,0 4.4628913,4.4628913 0 1 1 -8.92578,0 z"
       id="path1-3"
       style="stroke-width:0.185954" /><text
       xml:space="preserve"
       style="font-size:53.3333px;line-height:1.25;font-family:Comfortaa;-inkscape-font-specification:Comfortaa;text-align:center;text-anchor:middle;fill:#000000;fill-opacity:1;stroke:none;stroke-width:2.49827;stroke-opacity:1"
       x="909.05304"
       y="595.77393"
       id="text1"><tspan
         sodipodi:role="line"
         id="tspan1"
         x="909.05304"
         y="595.77393"
         style="font-size:53.3333px">ISV</tspan></text><text
       xml:space="preserve"
       style="font-size:53.3333px;line-height:1.25;font-family:Comfortaa;-inkscape-font-specification:Comfortaa;text-align:center;text-anchor:middle;fill:#000000;fill-opacity:1;stroke:none;stroke-width:2.49827;stroke-opacity:1"
       x="286.21484"
       y="584.4361"
       id="text2"><tspan
         sodipodi:role="line"
         id="tspan2"
         x="286.21484"
         y="584.4361"
         style="font-size:53.3333px">Dev</tspan></text><text
       xml:space="preserve"
       style="font-size:53.3333px;line-height:1.25;font-family:Comfortaa;-inkscape-font-specification:Comfortaa;text-align:center;text-anchor:middle;fill:#000000;fill-opacity:1;stroke:none;stroke-width:2.49827;stroke-opacity:1"
       x="933.04675"
       y="140.74078"
       id="text3"><tspan
         sodipodi:role="line"
         id="tspan3"
         x="933.04675"
         y="140.74078"
         style="font-size:53.3333px">Enduser</tspan></text><text
       xml:space="preserve"
       style="font-size:53.3333px;line-height:1.25;font-family:Comfortaa;-inkscape-font-specification:Comfortaa;text-align:center;text-anchor:middle;fill:#000000;fill-opacity:1;stroke:none;stroke-width:2.49827;stroke-opacity:1"
       x="321.48251"
       y="137.74507"
       id="text4"><tspan
         sodipodi:role="line"
         id="tspan4"
         x="321.48251"
         y="137.74507"
         style="font-size:53.3333px">Admin</tspan></text><path
       d="m 529.62723,312.92243 c 0.26882,0.13441 0.48388,0.45699 0.80646,0.45699 0.2957,0 0.75269,-0.10753 0.77957,-0.40323 0.0538,-0.37634 -0.51075,-0.61828 -0.86022,-0.77957 -0.45699,-0.18817 -1.04839,-0.26881 -1.47849,-0.0269 -0.10753,0.0538 -0.21506,0.18817 -0.1613,0.2957 0.0806,0.34946 0.61829,0.2957 0.91398,0.45699 z m -5.8871,0.45699 c 0.32258,0 0.53763,-0.32258 0.80645,-0.45699 0.2957,-0.16129 0.83333,-0.10753 0.94086,-0.43011 0.0538,-0.10752 -0.0538,-0.24193 -0.16129,-0.2957 -0.43011,-0.24193 -1.02151,-0.16129 -1.4785,0.0269 -0.34946,0.16129 -0.91398,0.40322 -0.86021,0.77957 0.0269,0.26881 0.48387,0.40322 0.75269,0.37634 z m 59.43557,74.94635 c -0.96774,-1.07527 -1.42473,-3.11828 -1.93549,-5.29571 -0.48387,-2.17742 -1.04838,-4.51613 -2.82258,-6.02151 -0.34946,-0.2957 -0.69893,-0.56452 -1.07527,-0.77957 -0.34946,-0.21505 -0.72581,-0.40323 -1.10215,-0.53764 2.47312,-7.33872 1.50538,-14.65056 -0.99463,-21.26347 -3.06452,-8.09141 -8.41399,-15.16131 -12.50002,-20.00003 -4.59678,-5.77958 -9.05915,-11.26346 -8.9785,-19.35487 0.1344,-12.33872 1.37097,-35.26887 -20.37638,-35.29575 -27.52692,-0.0538 -20.64519,27.79574 -20.94089,36.34414 -0.45699,6.29033 -1.72044,11.23658 -6.0484,17.3925 -5.08065,6.0484 -12.2312,15.80648 -15.6183,25.99466 -1.61291,4.81184 -2.3656,9.70432 -1.66667,14.32798 -1.74732,1.55914 -3.06452,3.95162 -4.46237,5.43012 -1.12904,1.15591 -2.76882,1.58602 -4.5699,2.23118 -1.80108,0.64517 -3.76345,1.61291 -4.97313,3.89786 -0.56451,1.04839 -0.75269,2.17742 -0.75269,3.33334 0,1.04839 0.16129,2.12366 0.32258,3.17205 0.32259,2.17742 0.67205,4.22043 0.21506,5.5914 -1.39785,3.87098 -1.58603,6.55915 -0.5914,8.52152 1.02151,1.96237 3.06452,2.82258 5.40323,3.30646 4.65055,0.96774 10.96776,0.7258 15.94089,3.36022 5.32259,2.7957 10.72582,3.79032 15.0269,2.7957 3.11829,-0.69893 5.67205,-2.58065 6.96238,-5.43012 3.36022,-0.0269 7.0699,-1.45161 12.98389,-1.77419 4.00538,-0.32258 9.03227,1.42473 14.81185,1.10215 0.16129,0.61828 0.37634,1.23656 0.67204,1.80108 v 0.0269 c 2.23119,4.48925 6.39786,6.53227 10.83335,6.1828 4.46238,-0.34946 9.16668,-2.95699 12.98389,-7.50001 3.65592,-4.40861 9.67744,-6.23657 13.68282,-8.65592 1.98925,-1.20968 3.60216,-2.71506 3.73656,-4.91937 0.10753,-2.2043 -1.18279,-4.65054 -4.16667,-7.98388 z M 530.40681,303.245 c 2.63441,-5.96775 9.19356,-5.86023 11.82797,-0.10753 1.74731,3.81721 0.96774,8.30646 -1.15592,10.86023 -0.4301,-0.21505 -1.58602,-0.69892 -3.3871,-1.3172 0.2957,-0.32259 0.83334,-0.72581 1.04839,-1.23657 1.29033,-3.17204 -0.0538,-7.25807 -2.44624,-7.33872 -1.96237,-0.1344 -3.73656,2.90323 -3.17205,6.18281 -1.10215,-0.53764 -2.52688,-0.94086 -3.49463,-1.1828 -0.26881,-1.85484 -0.0806,-3.92474 0.77958,-5.86022 z m -10.94088,-3.0914 c 2.71505,0 5.5914,3.81721 5.13441,9.00538 -0.94086,0.26882 -1.9086,0.67205 -2.74194,1.23657 0.32258,-2.39248 -0.88709,-5.40324 -2.58065,-5.26883 -2.25806,0.18817 -2.63441,5.69893 -0.48387,7.55378 0.26882,0.21505 0.51076,-0.0538 -1.58602,1.47849 -4.19356,-3.92473 -2.82259,-14.00539 2.25807,-14.00539 z m -3.65592,16.31722 c 1.66667,-1.23656 3.65592,-2.68817 3.79033,-2.82258 1.26344,-1.1828 3.62903,-3.81721 7.50001,-3.81721 1.9086,0 4.19355,0.61828 6.96238,2.39248 1.69355,1.10215 3.03763,1.18279 6.07527,2.5 2.25807,0.94086 3.6828,2.60753 2.82259,4.89248 -0.69893,1.9086 -2.957,3.87097 -6.10216,4.8656 -2.98388,0.96774 -5.32259,4.30108 -10.26884,4.00538 -1.04839,-0.0538 -1.88172,-0.26882 -2.58065,-0.56452 -2.15054,-0.94086 -3.27957,-2.7957 -5.37635,-4.03226 -2.31183,-1.29033 -3.54839,-2.7957 -3.95162,-4.11291 -0.37634,-1.31721 0,-2.41936 1.12904,-3.30646 z m 0.8871,89.78509 c -0.72581,9.43549 -11.8011,9.24732 -20.24197,4.83871 -8.03765,-4.24732 -18.44089,-1.74731 -20.56455,-5.8871 -0.64516,-1.26345 -0.64516,-3.41399 0.69893,-7.09679 v -0.0538 c 0.64516,-2.04302 0.16129,-4.30108 -0.16129,-6.42474 -0.32258,-2.09678 -0.48387,-4.03227 0.24193,-5.37635 0.94087,-1.80108 2.28495,-2.44624 3.9785,-3.03764 2.76883,-0.99463 3.17205,-0.91398 5.26883,-2.6613 1.4785,-1.53226 2.55377,-3.46774 3.84409,-4.83871 1.37097,-1.4785 2.68818,-2.17743 4.75807,-1.85485 2.17743,0.32259 4.05915,1.82796 5.88711,4.30109 l 5.26882,9.5699 c 2.55377,5.34947 11.58604,13.01077 11.02153,18.52154 z m -0.37635,-6.96238 c -1.10215,-1.7742 -2.58065,-3.65592 -3.87097,-5.26883 1.9086,0 3.81721,-0.59139 4.48925,-2.39247 0.61828,-1.66667 0,-4.00538 -1.98925,-6.69356 -3.62904,-4.89248 -10.29571,-8.73657 -10.29571,-8.73657 -3.62904,-2.25807 -5.67205,-5.02689 -6.61292,-8.03765 -0.94086,-3.01076 -0.80645,-6.26345 -0.0806,-9.46238 1.39785,-6.15592 5.00001,-12.15055 7.31184,-15.914 0.61828,-0.45699 0.21505,0.86022 -2.33872,5.59141 -2.28495,4.32796 -6.55915,14.32797 -0.69892,22.15057 0.16129,-5.56453 1.4785,-11.23658 3.70968,-16.53229 3.22581,-7.3656 10.0269,-20.13444 10.56453,-30.29574 0.2957,0.21505 1.23656,0.86021 1.66667,1.10215 1.23656,0.72581 2.17742,1.80108 3.3871,2.76882 3.33334,2.68818 7.66131,2.47312 11.39787,0.32258 1.66667,-0.94086 3.01076,-2.01613 4.2742,-2.41936 2.6613,-0.83333 4.78496,-2.31183 5.99464,-4.03226 2.06989,8.17205 6.90861,19.97315 10.00001,25.72585 1.63979,3.06452 4.91936,9.54302 6.3441,17.36561 0.88709,-0.0269 1.88172,0.10753 2.93011,0.37635 3.70968,-9.59679 -3.14517,-19.94627 -6.26345,-22.82262 -1.26345,-1.23656 -1.31721,-1.77419 -0.69893,-1.74731 3.3871,3.01076 7.84948,9.05915 9.46238,15.86024 0.75269,3.11828 0.8871,6.37098 0.10753,9.59679 4.40861,1.82796 9.65055,4.81183 8.2527,9.35485 -0.5914,-0.0269 -0.86022,0 -1.12904,0 0.86022,-2.71506 -1.04838,-4.73119 -6.12904,-7.01614 -5.26882,-2.31183 -9.67743,-2.31183 -10.29571,3.36022 -3.25269,1.12903 -4.91936,3.95162 -5.7527,7.33872 -0.75269,3.01076 -0.96774,6.63979 -1.18279,10.72582 -0.13441,2.0699 -0.96775,4.83872 -1.82796,7.79571 -8.62905,6.15593 -20.61832,8.8441 -30.72586,1.93549 z m 69.19365,-3.0914 c -0.24193,4.51613 -11.07528,5.34947 -16.98927,12.50002 -3.54839,4.22043 -7.90324,6.55915 -11.72045,6.85484 -3.81721,0.2957 -7.12366,-1.29032 -9.05915,-5.18818 -1.26344,-2.98387 -0.64516,-6.20968 0.2957,-9.75807 0.99463,-3.81721 2.47312,-7.74195 2.66129,-10.914 0.21506,-4.08603 0.45699,-7.6613 1.12904,-10.40324 0.69892,-2.76882 1.77419,-4.62366 3.6828,-5.67205 0.0806,-0.0538 0.18817,-0.0807 0.26882,-0.13441 0.21505,3.54839 1.96237,7.15055 5.05377,7.93012 3.3871,0.8871 8.2527,-2.01613 10.32259,-4.38173 2.41936,-0.0806 4.22044,-0.24193 6.07528,1.37097 2.6613,2.28495 1.90861,8.14518 4.59678,11.18281 2.84947,3.11829 3.76345,5.24195 3.6828,6.61292 z M 516.8584,319.7504 c 0.53763,0.51075 1.26344,1.20968 2.15054,1.9086 1.77419,1.39785 4.24731,2.84947 7.33872,2.84947 3.11828,0 6.0484,-1.58602 8.5484,-2.90323 1.31721,-0.69893 2.93011,-1.88172 3.9785,-2.7957 1.04839,-0.91398 1.58602,-1.69355 0.83333,-1.7742 -0.75268,-0.0806 -0.69892,0.69893 -1.6129,1.37097 -1.1828,0.86022 -2.60753,1.98925 -3.73657,2.63441 -1.98925,1.12904 -5.24194,2.74194 -8.03764,2.74194 -2.79571,0 -5.02689,-1.29032 -6.69356,-2.60753 -0.83334,-0.67204 -1.53226,-1.34409 -2.0699,-1.85484 -0.40322,-0.37634 -0.51075,-1.23656 -1.15591,-1.31721 -0.37635,-0.0269 -0.48388,0.99463 0.45699,1.74732 z"
       id="path1-4"
       style="stroke-width:0.268818" /></g></svg>
