<?xml version="1.0" encoding="UTF-8" standalone="no"?>
<!-- Created with Inkscape (http://www.inkscape.org/) -->

<svg
   width="147.81079mm"
   height="114.41461mm"
   viewBox="0 0 147.81079 114.41461"
   version="1.1"
   id="svg1"
   inkscape:version="1.3.2 (091e20ef0f, 2023-11-25)"
   sodipodi:docname="rebuilding.svg"
   xmlns:inkscape="http://www.inkscape.org/namespaces/inkscape"
   xmlns:sodipodi="http://sodipodi.sourceforge.net/DTD/sodipodi-0.dtd"
   xmlns="http://www.w3.org/2000/svg"
   xmlns:svg="http://www.w3.org/2000/svg">
  <sodipodi:namedview
     id="namedview1"
     pagecolor="#ffffff"
     bordercolor="#000000"
     borderopacity="0.25"
     inkscape:showpageshadow="2"
     inkscape:pageopacity="0.0"
     inkscape:pagecheckerboard="0"
     inkscape:deskcolor="#d1d1d1"
     inkscape:document-units="mm"
     inkscape:zoom="1.7285229"
     inkscape:cx="343.35674"
     inkscape:cy="193.80709"
     inkscape:window-width="2876"
     inkscape:window-height="1576"
     inkscape:window-x="1920"
     inkscape:window-y="20"
     inkscape:window-maximized="1"
     inkscape:current-layer="layer1" />
  <defs
     id="defs1">
    <marker
       style="overflow:visible"
       id="marker4"
       refX="0"
       refY="0"
       orient="auto-start-reverse"
       inkscape:stockid="Dart arrow"
       markerWidth="0.5"
       markerHeight="0.5"
       viewBox="0 0 1 1"
       inkscape:isstock="true"
       inkscape:collect="always"
       preserveAspectRatio="xMidYMid">
      <path
         style="fill:context-stroke;fill-rule:evenodd;stroke:none"
         d="M 0,0 5,-5 -12.5,0 5,5 Z"
         transform="scale(-0.5)"
         id="path4" />
    </marker>
    <marker
       style="overflow:visible"
       id="DartArrow"
       refX="0"
       refY="0"
       orient="auto-start-reverse"
       inkscape:stockid="Dart arrow"
       markerWidth="1"
       markerHeight="1"
       viewBox="0 0 1 1"
       inkscape:isstock="true"
       inkscape:collect="always"
       preserveAspectRatio="xMidYMid">
      <path
         style="fill:context-stroke;fill-rule:evenodd;stroke:none"
         d="M 0,0 5,-5 -12.5,0 5,5 Z"
         transform="scale(-0.5)"
         id="path6" />
    </marker>
    <marker
       style="overflow:visible"
       id="marker4-7"
       refX="0"
       refY="0"
       orient="auto-start-reverse"
       inkscape:stockid="Dart arrow"
       markerWidth="0.5"
       markerHeight="0.5"
       viewBox="0 0 1 1"
       inkscape:isstock="true"
       inkscape:collect="always"
       preserveAspectRatio="xMidYMid">
      <path
         style="fill:context-stroke;fill-rule:evenodd;stroke:none"
         d="M 0,0 5,-5 -12.5,0 5,5 Z"
         transform="scale(-0.5)"
         id="path4-8" />
    </marker>
    <marker
       style="overflow:visible"
       id="DartArrow-6"
       refX="0"
       refY="0"
       orient="auto-start-reverse"
       inkscape:stockid="Dart arrow"
       markerWidth="1"
       markerHeight="1"
       viewBox="0 0 1 1"
       inkscape:isstock="true"
       inkscape:collect="always"
       preserveAspectRatio="xMidYMid">
      <path
         style="fill:context-stroke;fill-rule:evenodd;stroke:none"
         d="M 0,0 5,-5 -12.5,0 5,5 Z"
         transform="scale(-0.5)"
         id="path6-1" />
    </marker>
    <marker
       style="overflow:visible"
       id="DartArrow-6-0"
       refX="0"
       refY="0"
       orient="auto-start-reverse"
       inkscape:stockid="Dart arrow"
       markerWidth="1"
       markerHeight="1"
       viewBox="0 0 1 1"
       inkscape:isstock="true"
       inkscape:collect="always"
       preserveAspectRatio="xMidYMid">
      <path
         style="fill:context-stroke;fill-rule:evenodd;stroke:none"
         d="M 0,0 5,-5 -12.5,0 5,5 Z"
         transform="scale(-0.5)"
         id="path6-1-6" />
    </marker>
    <marker
       style="overflow:visible"
       id="DartArrow-7"
       refX="0"
       refY="0"
       orient="auto-start-reverse"
       inkscape:stockid="Dart arrow"
       markerWidth="1"
       markerHeight="1"
       viewBox="0 0 1 1"
       inkscape:isstock="true"
       inkscape:collect="always"
       preserveAspectRatio="xMidYMid">
      <path
         style="fill:context-stroke;fill-rule:evenodd;stroke:none"
         d="M 0,0 5,-5 -12.5,0 5,5 Z"
         transform="scale(-0.5)"
         id="path6-6" />
    </marker>
  </defs>
  <g
     inkscape:label="Layer 1"
     inkscape:groupmode="layer"
     id="layer1"
     transform="translate(-24.662406,-38.87156)">
    <path
       d="m 25.792044,90.991562 -1.129638,2.26151 h 4.63441 v -2.85195 h -2.546701 c -0.405508,0 -0.775374,0.22949 -0.958071,0.59044 z m 4.217753,2.26151 h 4.634419 l -1.129638,-2.26151 c -0.182706,-0.36095 -0.552563,-0.59044 -0.95808,-0.59044 h -2.546701 z m 4.634419,0.71298 h -9.98181 v 4.9909 c 0,0.78652 0.639458,1.425978 1.425972,1.425978 h 7.129866 c 0.786514,0 1.425972,-0.639458 1.425972,-1.425978 z"
       id="path1"
       style="stroke-width:0.0222808" />
    <path
       d="m 25.792044,105.21987 -1.129638,2.26151 h 4.63441 v -2.85195 h -2.546701 c -0.405508,0 -0.775374,0.22949 -0.958071,0.59044 z m 4.217753,2.26151 h 4.634419 l -1.129638,-2.26151 c -0.182706,-0.36095 -0.552563,-0.59044 -0.95808,-0.59044 h -2.546701 z m 4.634419,0.71298 h -9.98181 v 4.9909 c 0,0.78652 0.639458,1.42598 1.425972,1.42598 h 7.129866 c 0.786514,0 1.425972,-0.63946 1.425972,-1.42598 z"
       id="path1-3"
       style="stroke-width:0.0222808" />
    <path
       d="m 25.792044,120.18366 -1.129638,2.26151 h 4.63441 v -2.85195 h -2.546701 c -0.405508,0 -0.775374,0.22949 -0.958071,0.59044 z m 4.217753,2.26151 h 4.634419 l -1.129638,-2.26151 c -0.182706,-0.36095 -0.552563,-0.59044 -0.95808,-0.59044 h -2.546701 z m 4.634419,0.71298 h -9.98181 v 4.9909 c 0,0.78652 0.639458,1.42598 1.425972,1.42598 h 7.129866 c 0.786514,0 1.425972,-0.63946 1.425972,-1.42598 z"
       id="path1-3-2"
       style="stroke-width:0.0222808" />
    <path
       d="m 42.987327,47.0486 c 0.06631,0.03316 0.119375,0.112744 0.198954,0.112744 0.07294,0 0.185691,-0.02652 0.192323,-0.09948 0.01326,-0.09285 -0.126006,-0.152531 -0.212218,-0.192322 -0.112744,-0.04642 -0.258641,-0.06631 -0.36475,-0.0067 -0.02652,0.01326 -0.05305,0.04642 -0.03979,0.07296 0.01989,0.08622 0.152532,0.07294 0.225482,0.112743 z m -1.452367,0.112744 c 0.07959,0 0.132636,-0.07959 0.198955,-0.112744 0.07294,-0.03979 0.205586,-0.02653 0.232113,-0.106113 0.01326,-0.02652 -0.01326,-0.05968 -0.03979,-0.07296 -0.106113,-0.05968 -0.252009,-0.03979 -0.36475,0.0067 -0.08622,0.03979 -0.225481,0.09948 -0.212217,0.192322 0.0067,0.06631 0.119375,0.09948 0.185689,0.09285 z m 14.662936,18.489491 c -0.238745,-0.265274 -0.351486,-0.769291 -0.477491,-1.306469 -0.119375,-0.537176 -0.258641,-1.114144 -0.69634,-1.485523 -0.08622,-0.07296 -0.172427,-0.13927 -0.265273,-0.192323 -0.08622,-0.05305 -0.179058,-0.09948 -0.271903,-0.132637 0.610126,-1.810486 0.371381,-3.614338 -0.245377,-5.245763 -0.756027,-1.996175 -2.075757,-3.740342 -3.083793,-4.934069 -1.13404,-1.425838 -2.234921,-2.778728 -2.215025,-4.774904 0.03316,-3.044001 0.338222,-8.700937 -5.026914,-8.707568 -6.790975,-0.01326 -5.093231,6.857293 -5.166181,8.966209 -0.112744,1.551843 -0.424436,2.772097 -1.492158,4.290782 -1.253412,1.492157 -3.017474,3.899505 -3.853082,6.412962 -0.397909,1.187095 -0.5836,2.394084 -0.411173,3.534755 -0.431068,0.384646 -0.756026,0.974878 -1.10088,1.339628 -0.278536,0.285168 -0.683077,0.391275 -1.127409,0.550439 -0.444331,0.159164 -0.928453,0.39791 -1.226885,0.961613 -0.139267,0.25864 -0.18569,0.537176 -0.18569,0.822344 0,0.258642 0.03979,0.523913 0.07958,0.782553 0.07959,0.537178 0.165795,1.041195 0.05305,1.379419 -0.344855,0.95498 -0.391277,1.618161 -0.1459,2.102284 0.252009,0.484122 0.756026,0.696338 1.332994,0.815712 1.147304,0.238745 2.705779,0.17906 3.932664,0.828978 1.313099,0.689707 2.646094,0.935084 3.707183,0.689707 0.76929,-0.172426 1.399312,-0.636655 1.717639,-1.339625 0.828977,-0.0067 1.744167,-0.358119 3.203166,-0.4377 0.988139,-0.07959 2.228288,0.351486 3.654128,0.271904 0.03979,0.152531 0.09285,0.305062 0.165795,0.444332 v 0.0067 c 0.55044,1.107512 1.578371,1.611529 2.67262,1.525315 1.100881,-0.08621 2.261448,-0.729498 3.203165,-1.850274 0.901927,-1.087618 2.387452,-1.53858 3.375592,-2.135443 0.490755,-0.298433 0.888663,-0.669815 0.921822,-1.213623 0.02652,-0.543807 -0.2918,-1.147303 -1.02793,-1.969647 z M 43.179649,44.661147 c 0.649919,-1.472261 2.26808,-1.445735 2.917998,-0.02652 0.431067,0.941717 0.238744,2.049229 -0.285169,2.679251 -0.106112,-0.05305 -0.391277,-0.172427 -0.835608,-0.324958 0.07294,-0.07957 0.205586,-0.179059 0.258641,-0.305064 0.318327,-0.782554 -0.01326,-1.790589 -0.603495,-1.810484 -0.484122,-0.03316 -0.921822,0.716236 -0.782553,1.525316 -0.271905,-0.132636 -0.623391,-0.232114 -0.862136,-0.2918 -0.06631,-0.457594 -0.01989,-0.968244 0.192322,-1.445736 z m -2.699147,-0.762658 c 0.669813,0 1.379417,0.941718 1.266676,2.221657 -0.232113,0.06631 -0.470859,0.165796 -0.676445,0.305063 0.07959,-0.59023 -0.21885,-1.332994 -0.636654,-1.299835 -0.557071,0.04642 -0.649918,1.405945 -0.119374,1.86354 0.06631,0.05305 0.126006,-0.01326 -0.391278,0.364749 -1.034562,-0.968245 -0.69634,-3.455174 0.557072,-3.455174 z m -0.901927,4.02551 c 0.411172,-0.305063 0.901927,-0.663182 0.935086,-0.696341 0.311696,-0.291799 0.895295,-0.941716 1.850275,-0.941716 0.470859,0 1.034563,0.152531 1.71764,0.590231 0.417803,0.271904 0.749394,0.291799 1.498789,0.616758 0.557072,0.232113 0.908559,0.643285 0.69634,1.20699 -0.172427,0.470858 -0.729499,0.95498 -1.505421,1.200357 -0.73613,0.238746 -1.313099,1.061091 -2.533352,0.988141 -0.25864,-0.01326 -0.464226,-0.06631 -0.636654,-0.139269 -0.530545,-0.232112 -0.809081,-0.689708 -1.326362,-0.994771 -0.570336,-0.318328 -0.875399,-0.689709 -0.974877,-1.014667 -0.09285,-0.324958 0,-0.596863 0.278536,-0.815713 z m 0.21885,22.150251 c -0.179058,2.327766 -2.911365,2.281344 -4.993754,1.193726 -1.982912,-1.047825 -4.549423,-0.431068 -5.073335,-1.452366 -0.159164,-0.311695 -0.159164,-0.842241 0.172426,-1.750799 v -0.01326 c 0.159163,-0.504016 0.03979,-1.061089 -0.03979,-1.585002 -0.07959,-0.517281 -0.119374,-0.994772 0.05968,-1.326363 0.232113,-0.444329 0.563703,-0.603493 0.981507,-0.749394 0.683077,-0.245377 0.782555,-0.225481 1.299835,-0.656548 0.36475,-0.378015 0.630022,-0.855506 0.94835,-1.193727 0.338222,-0.364749 0.66318,-0.537178 1.17383,-0.457595 0.537177,0.07957 1.001404,0.450963 1.452367,1.061091 l 1.299835,2.360923 c 0.630022,1.319731 2.858311,3.209798 2.719043,4.569318 z m -0.09285,-1.717638 c -0.271905,-0.437699 -0.636654,-0.901927 -0.954981,-1.299837 0.470859,0 0.941717,-0.145899 1.107512,-0.590231 0.152533,-0.411173 0,-0.988139 -0.490753,-1.651319 -0.895295,-1.206991 -2.539984,-2.15534 -2.539984,-2.15534 -0.895295,-0.557072 -1.399312,-1.240149 -1.631426,-1.98291 -0.232113,-0.742765 -0.198955,-1.545214 -0.01989,-2.334399 0.344854,-1.518685 1.233517,-2.99758 1.803852,-3.926033 0.152532,-0.112744 0.05305,0.212217 -0.576967,1.379416 -0.563704,1.067722 -1.618162,3.534756 -0.172427,5.464614 0.03979,-1.372785 0.36475,-2.772098 0.915189,-4.078565 0.795818,-1.817116 2.473667,-4.967227 2.606303,-7.474052 0.07294,0.05305 0.305063,0.212219 0.411172,0.271905 0.305063,0.179058 0.537177,0.444331 0.835608,0.683077 0.822345,0.66318 1.890067,0.610125 2.811889,0.07957 0.411172,-0.232114 0.742763,-0.497386 1.054457,-0.596864 0.65655,-0.205586 1.180463,-0.570335 1.478895,-0.994771 0.51065,2.01607 1.704375,4.927437 2.467034,6.346644 0.40454,0.756027 1.213621,2.354293 1.565107,4.28415 0.21885,-0.0067 0.464227,0.02652 0.722868,0.09285 0.91519,-2.367557 -0.775923,-4.920805 -1.545212,-5.630409 -0.311696,-0.305063 -0.32496,-0.437699 -0.172427,-0.431068 0.835608,0.742763 1.936489,2.23492 2.334398,3.91277 0.185689,0.769289 0.218849,1.571738 0.02653,2.367556 1.087616,0.450964 2.38082,1.187093 2.035965,2.307869 -0.1459,-0.0067 -0.212218,0 -0.278536,0 0.212219,-0.669811 -0.258641,-1.167196 -1.512053,-1.7309 -1.299835,-0.570337 -2.387452,-0.570337 -2.539984,0.828975 -0.80245,0.278536 -1.213622,0.974875 -1.419208,1.810483 -0.185691,0.742765 -0.238744,1.638059 -0.291799,2.646095 -0.03316,0.510649 -0.238745,1.193726 -0.450964,1.923226 -2.128811,1.518682 -5.086599,2.181866 -7.58016,0.477491 z m 17.070283,-0.762659 c -0.05968,1.114144 -2.732306,1.319731 -4.191305,3.083791 -0.875399,1.041195 -1.949752,1.618165 -2.89147,1.691113 -0.941716,0.07294 -1.757429,-0.318326 -2.23492,-1.27994 -0.311695,-0.736131 -0.159164,-1.531949 0.07294,-2.407349 0.245377,-0.941716 0.610126,-1.909962 0.656549,-2.692513 0.05305,-1.008037 0.112744,-1.890066 0.278536,-2.56651 0.172427,-0.683077 0.437699,-1.140674 0.908558,-1.399314 0.01989,-0.01326 0.04642,-0.01991 0.06631,-0.03316 0.05305,0.875399 0.484122,1.764061 1.24678,1.956383 0.835609,0.218851 2.035967,-0.497385 2.546617,-1.080984 0.596863,-0.01991 1.041194,-0.05968 1.498788,0.338222 0.65655,0.563705 0.47086,2.009439 1.13404,2.758834 0.702972,0.769289 0.928455,1.293202 0.908558,1.631426 z M 39.837211,48.73308 c 0.132636,0.126006 0.311695,0.298432 0.530545,0.470859 0.437699,0.344854 1.047826,0.702972 1.810484,0.702972 0.769291,0 1.492159,-0.391277 2.108917,-0.716236 0.324959,-0.172427 0.722867,-0.464227 0.981508,-0.689708 0.258641,-0.225482 0.391277,-0.417804 0.205586,-0.437699 -0.185691,-0.01989 -0.172427,0.172426 -0.397908,0.338222 -0.2918,0.212217 -0.643286,0.490753 -0.921822,0.649917 -0.490755,0.278536 -1.293204,0.676445 -1.982912,0.676445 -0.689708,0 -1.240149,-0.318327 -1.651321,-0.643285 -0.205586,-0.165796 -0.378013,-0.331591 -0.510649,-0.457596 -0.09948,-0.09285 -0.126007,-0.305064 -0.285169,-0.324959 -0.09285,-0.0067 -0.119375,0.245378 0.112744,0.431068 z"
       id="path1-6"
       style="stroke-width:0.0663181" />
    <path
       d="m 49.830361,95.75715 a 6.146275,6.146275 0 1 1 12.29255,0 6.146275,6.146275 0 1 1 -12.29255,0 z m 6.14628,0.768284 a 0.76828435,0.76828435 0 1 1 0,-1.536568 0.76828435,0.76828435 0 1 1 0,1.536568 z m -2.30485,-0.768284 a 2.3048531,2.3048531 0 1 0 4.6097,0 2.3048531,2.3048531 0 1 0 -4.6097,0 z m -1.53657,-0.384142 c 0,-0.840311 0.42015,-1.707032 1.0852,-2.372078 0.66504,-0.665046 1.53177,-1.085202 2.37208,-1.085202 0.21127,0 0.38414,-0.172864 0.38414,-0.384142 0,-0.211278 -0.17287,-0.384142 -0.38414,-0.384142 -1.09001,0 -2.1416,0.535398 -2.91708,1.308484 -0.77549,0.773086 -1.30849,1.827076 -1.30849,2.91708 0,0.211278 0.17287,0.384142 0.38414,0.384142 0.21128,0 0.38415,-0.172864 0.38415,-0.384142 z"
       id="path1-2"
       style="stroke-width:0.0240089" />
    <text
       xml:space="preserve"
       style="font-size:10.5833px;line-height:1.25;font-family:Comfortaa;-inkscape-font-specification:Comfortaa;text-align:center;text-anchor:middle;fill:#000000;stroke-width:0.661001"
       x="42.893963"
       y="83.243729"
       id="text1"><tspan
         sodipodi:role="line"
         id="tspan1"
         style="font-size:10.5833px;stroke-width:0.661"
         x="42.893963"
         y="83.243729">Distro</tspan></text>
    <path
       d="m 117.28875,90.991562 -1.12964,2.26151 h 4.63441 v -2.85195 h -2.5467 c -0.40551,0 -0.77538,0.22949 -0.95807,0.59044 z m 4.21775,2.26151 h 4.63442 l -1.12964,-2.26151 c -0.18271,-0.36095 -0.55256,-0.59044 -0.95808,-0.59044 h -2.5467 z m 4.63442,0.71298 h -9.98181 v 4.9909 c 0,0.78652 0.63946,1.425978 1.42597,1.425978 h 7.12987 c 0.78651,0 1.42597,-0.639458 1.42597,-1.425978 z"
       id="path1-7"
       style="stroke-width:0.0222808" />
    <path
       d="m 117.28875,105.21987 -1.12964,2.26151 h 4.63441 v -2.85195 h -2.5467 c -0.40551,0 -0.77538,0.22949 -0.95807,0.59044 z m 4.21775,2.26151 h 4.63442 l -1.12964,-2.26151 c -0.18271,-0.36095 -0.55256,-0.59044 -0.95808,-0.59044 h -2.5467 z m 4.63442,0.71298 h -9.98181 v 4.9909 c 0,0.78652 0.63946,1.42598 1.42597,1.42598 h 7.12987 c 0.78651,0 1.42597,-0.63946 1.42597,-1.42598 z"
       id="path1-3-9"
       style="stroke-width:0.0222808" />
    <path
       d="m 117.28875,120.18366 -1.12964,2.26151 h 4.63441 v -2.85195 h -2.5467 c -0.40551,0 -0.77538,0.22949 -0.95807,0.59044 z m 4.21775,2.26151 h 4.63442 l -1.12964,-2.26151 c -0.18271,-0.36095 -0.55256,-0.59044 -0.95808,-0.59044 h -2.5467 z m 4.63442,0.71298 h -9.98181 v 4.9909 c 0,0.78652 0.63946,1.42598 1.42597,1.42598 h 7.12987 c 0.78651,0 1.42597,-0.63946 1.42597,-1.42598 z"
       id="path1-3-2-2"
       style="stroke-width:0.0222808" />
    <path
       d="m 160.18064,103.39265 a 6.146275,6.146275 0 1 1 12.29255,0 6.146275,6.146275 0 1 1 -12.29255,0 z m 6.14628,0.76829 a 0.768285,0.768285 0 1 1 0,-1.53657 0.768285,0.768285 0 1 1 0,1.53657 z m -2.30485,-0.76829 a 2.3048531,2.3048531 0 1 0 4.6097,0 2.3048531,2.3048531 0 1 0 -4.6097,0 z m -1.53657,-0.38414 c 0,-0.84031 0.42015,-1.70703 1.0852,-2.37208 0.66504,-0.665042 1.53177,-1.085198 2.37208,-1.085198 0.21127,0 0.38414,-0.172864 0.38414,-0.384142 0,-0.211278 -0.17287,-0.384142 -0.38414,-0.384142 -1.09001,0 -2.1416,0.535398 -2.91708,1.308482 -0.77549,0.77309 -1.30849,1.82708 -1.30849,2.91708 0,0.21128 0.17287,0.38414 0.38414,0.38414 0.21128,0 0.38415,-0.17286 0.38415,-0.38414 z"
       id="path1-2-2"
       style="stroke-width:0.0240089" />
    <text
       xml:space="preserve"
       style="font-size:10.5833px;line-height:1.25;font-family:Comfortaa;-inkscape-font-specification:Comfortaa;text-align:center;text-anchor:middle;fill:#000000;stroke-width:0.661001"
       x="138.09479"
       y="83.243729"
       id="text1-3"><tspan
         sodipodi:role="line"
         id="tspan1-7"
         style="font-size:10.5833px;stroke-width:0.661"
         x="138.09479"
         y="83.243729">Downstream</tspan></text>
    <path
       d="m 132.36073,51.375001 h 2.36044 v 4.29986 h -5.04786 l 1.36163,-3.399577 c 0.21499,-0.541961 0.73904,-0.900283 1.32579,-0.900283 z m 4.51037,4.29986 v -4.29986 h 3.63696 c 0.43447,0 0.84654,0.197077 1.11976,0.537483 l 3.0099,3.762377 z m 11.47525,0.04479 -4.47902,-5.598775 c -0.81518,-1.021217 -2.05139,-1.612447 -3.35927,-1.612447 h -8.14733 c -1.76026,0 -3.34135,1.070485 -3.99081,2.700849 l -1.86327,4.662659 c -1.06601,0.421028 -1.81848,1.455682 -1.81848,2.669496 v 5.016503 c 0,0.792786 0.6405,1.433286 1.43328,1.433286 h 1.49152 c 0.3404,2.033475 2.10961,3.583216 4.24163,3.583216 2.13201,0 3.90122,-1.549741 4.24163,-3.583216 h 5.8496 c 0.3404,2.033475 2.10961,3.583216 4.24163,3.583216 2.13201,0 3.90123,-1.549741 4.24163,-3.583216 h 1.49151 c 0.79279,0 1.43329,-0.6405 1.43329,-1.433286 v -2.14993 c 0,-2.920321 -2.18576,-5.330034 -5.00754,-5.688355 z m -4.18789,7.838285 a 2.1499296,2.1499296 0 1 1 4.05352,1.433286 2.1499296,2.1499296 0 1 1 -4.05352,-1.433286 z M 131.8546,62.124649 a 2.1499296,2.1499296 0 1 1 0,4.299859 2.1499296,2.1499296 0 1 1 0,-4.299859 z"
       id="path1-28"
       style="stroke-width:0.0447901" />
    <path
       style="fill:none;stroke:#000000;stroke-width:0.661;stroke-dasharray:none;stroke-opacity:1;marker-end:url(#DartArrow)"
       d="m 32.22018,133.40419 c 27.137706,13.52077 55.759771,13.81671 80.49361,1.36657"
       id="path2"
       sodipodi:nodetypes="cc" />
    <path
       style="fill:none;stroke:#000000;stroke-width:0.661;stroke-dasharray:1.322, 1.322;stroke-dashoffset:0;stroke-opacity:1;marker-end:url(#DartArrow-7)"
       d="M 116.25653,142.52519 C 89.118822,156.04596 60.496757,156.3419 35.762918,143.89176"
       id="path2-69"
       sodipodi:nodetypes="cc" />
    <path
       style="fill:none;stroke:#000000;stroke-width:0.661;stroke-dasharray:none;stroke-opacity:1;marker-end:url(#DartArrow-6)"
       d="m 128.73555,96.126534 c 12.26825,0 13.63066,4.322376 24.91512,4.695336"
       id="path2-6"
       sodipodi:nodetypes="cc" />
    <path
       style="fill:none;stroke:#000000;stroke-width:0.661;stroke-dasharray:none;stroke-opacity:1;marker-end:url(#DartArrow-6-0)"
       d="m 128.73555,109.95517 c 12.26825,0 13.63066,-3.79321 24.91512,-4.16617"
       id="path2-6-5"
       sodipodi:nodetypes="cc" />
    <path
       d="m 138.32152,136.06623 c -0.15651,-0.12191 -0.37891,-0.10708 -0.52059,0.0329 l -0.65897,0.65897 c -0.14004,0.14004 -0.15486,0.36244 -0.0346,0.52059 l 1.31795,1.71334 c 0.0741,0.0972 0.1911,0.15486 0.31301,0.15486 h 0.89126 l 1.79571,1.7957 c -0.24217,0.47776 -0.16475,1.07742 0.23558,1.4761 l 1.84513,1.84513 c 0.20593,0.20593 0.54036,0.20593 0.74629,0 l 1.05435,-1.05436 c 0.20593,-0.20593 0.20593,-0.54036 0,-0.74629 l -1.84512,-1.84512 c -0.39868,-0.39868 -0.99835,-0.47776 -1.4761,-0.23559 l -1.79571,-1.7957 v -0.88962 c 0,-0.12355 -0.0577,-0.23888 -0.15486,-0.31301 z m -0.96704,6.44312 c -0.20923,0.20923 -0.32784,0.49423 -0.32784,0.79077 0,0.61779 0.50082,1.11861 1.1186,1.11861 0.29654,0 0.58155,-0.11862 0.79077,-0.32784 l 1.94068,-1.94068 c -0.1285,-0.34431 -0.14827,-0.71828 -0.0593,-1.07248 l -1.01646,-1.01647 z m 8.10702,-4.15318 c 0,-0.17298 -0.0181,-0.34102 -0.0527,-0.50247 -0.0395,-0.18451 -0.26524,-0.23229 -0.39868,-0.0988 l -1.05271,1.05271 c -0.0494,0.0494 -0.11697,0.0774 -0.18616,0.0774 h -0.94563 c -0.14498,0 -0.26359,-0.11861 -0.26359,-0.26359 v -0.94727 c 0,-0.0692 0.028,-0.13674 0.0774,-0.18616 l 1.05271,-1.05271 c 0.13344,-0.13344 0.0857,-0.35914 -0.0988,-0.39868 -0.16309,-0.0346 -0.33113,-0.0527 -0.50411,-0.0527 -1.30971,0 -2.37231,1.0626 -2.37231,2.37231 v 0.0132 l 1.40526,1.40526 c 0.59308,-0.14992 1.24876,0.008 1.71334,0.47281 l 0.25864,0.25865 c 0.80725,-0.37891 1.36737,-1.19933 1.36737,-2.1499 z m -7.5123,4.74461 a 0.395385,0.395385 0 1 1 0.79077,0 0.395385,0.395385 0 1 1 -0.79077,0 z"
       id="path1-61"
       style="stroke-width:0.0164743" />
    <path
       id="path3"
       style="fill:none;stroke:#000000;stroke-width:0.661;stroke-dasharray:none;marker-end:url(#marker4)"
       d="m 133.78952,126.30294 c -0.38026,-0.89904 -0.59053,-1.88748 -0.59053,-2.92504 0,-4.15022 3.36442,-7.51464 7.51464,-7.51464 2.07511,0 3.95378,0.84109 5.31366,2.20098"
       sodipodi:nodetypes="cssc" />
    <path
       id="path3-5"
       style="fill:none;stroke:#000000;stroke-width:0.661;stroke-dasharray:none;marker-end:url(#marker4-7)"
       d="m 148.15438,120.95321 c 0.38026,0.89904 0.59053,1.88748 0.59053,2.92504 0,4.15022 -3.36442,7.51464 -7.51464,7.51464 -2.07511,0 -3.95378,-0.84109 -5.31366,-2.20098"
       sodipodi:nodetypes="cssc" />
  </g>
</svg>
